<svg width="204" height="77" viewBox="0 0 204 77" fill="none" xmlns="http://www.w3.org/2000/svg">
<path d="M17.5 47C24.9558 47 31 40.9558 31 33.5C31 26.0442 24.9558 20 17.5 20C10.0442 20 4 26.0442 4 33.5C4 40.9558 10.0442 47 17.5 47Z" fill="url(#paint0_linear_66_48)"/>
<path d="M10.4286 29.1351C14.6075 28.0893 18.7766 27.046 22.9559 26C23.1752 26.848 23.3923 27.6879 23.6118 28.5371C20.3486 29.3537 17.0907 30.1692 13.8329 30.9846C13.8336 30.9898 13.8342 30.9949 13.835 31.0001H23.9228C23.9245 31.037 23.9274 31.0668 23.9274 31.0969C23.9276 33.2878 23.9287 35.4789 23.927 37.6698C23.926 38.8933 22.9172 39.9325 21.6794 39.9896C21.5589 39.9952 21.4381 39.9986 21.3174 39.9986C18.6832 39.9992 16.049 39.9995 13.415 39.9986C12.7566 39.9984 12.1814 39.7789 11.7114 39.3255C11.2836 38.9126 11.0414 38.4063 11.0043 37.8126C10.9969 37.6941 10.9946 37.5752 10.9946 37.4565C10.994 35.5189 10.9931 33.5814 10.9959 31.644C10.9963 31.4423 10.9738 31.2479 10.9213 31.0522C10.7567 30.4395 10.6021 29.8244 10.4438 29.21C10.4385 29.1894 10.4353 29.1682 10.4286 29.1351ZM11.6049 33.6276V33.7292C11.6049 35.0375 11.6047 36.3459 11.6057 37.6541C11.6057 37.7256 11.612 37.7977 11.6228 37.8685C11.7616 38.7735 12.5004 39.3983 13.4305 39.3983C16.0963 39.3983 18.7622 39.3983 21.4281 39.398C21.5011 39.398 21.5742 39.3946 21.6469 39.3893C22.5983 39.3211 23.3167 38.5605 23.3167 37.621C23.3167 36.3282 23.3167 35.0357 23.3167 33.7429V33.6276H11.6049ZM13.4705 31.6036C13.4906 31.6357 13.5024 31.6568 13.5162 31.6763C13.8161 32.1019 14.1171 32.5267 14.4147 32.9539C14.4495 33.0038 14.4836 33.0237 14.5453 33.0232C14.9044 33.0203 15.2635 33.0218 15.6225 33.0215C15.6496 33.0215 15.6768 33.0177 15.7073 33.0153C15.7006 32.998 15.6991 32.9882 15.6939 32.9809C15.3824 32.5369 15.0714 32.0923 14.7566 31.6504C14.7379 31.6241 14.6894 31.6062 14.6543 31.6053C14.4605 31.601 14.2666 31.6032 14.0728 31.6032C13.877 31.6032 13.6811 31.6036 13.4705 31.6036ZM18.6032 33.0218C18.5813 32.9858 18.5696 32.9638 18.5555 32.9437C18.2552 32.5175 17.9536 32.0923 17.6552 31.6648C17.6218 31.6171 17.5873 31.6021 17.5308 31.6023C17.1681 31.6046 16.8053 31.6034 16.4426 31.6036C16.419 31.6036 16.3953 31.6059 16.3602 31.6077C16.3772 31.634 16.3865 31.6494 16.3966 31.6639C16.6725 32.0572 16.9565 32.4452 17.2204 32.8462C17.3149 32.9897 17.4181 33.032 17.5838 33.0256C17.9169 33.0126 18.251 33.0218 18.6032 33.0218ZM19.2443 31.6036C19.2651 31.6367 19.2767 31.6575 19.2903 31.6771C19.5906 32.103 19.8922 32.5281 20.19 32.9555C20.2253 33.0064 20.2614 33.0235 20.3217 33.023C20.6779 33.0205 21.0341 33.0218 21.3903 33.0215C21.418 33.0215 21.4455 33.0181 21.4814 33.0158C21.4709 32.9946 21.4659 32.9803 21.4577 32.9685C21.1494 32.529 20.8415 32.0893 20.5302 31.6519C20.5114 31.6256 20.4641 31.6062 20.4297 31.6055C20.2232 31.6012 20.0163 31.6034 19.8095 31.6034C19.6263 31.6034 19.443 31.6036 19.2443 31.6036ZM21.0964 28.5442C21.0757 28.5228 21.0679 28.513 21.0586 28.505C20.6476 28.1524 20.2369 27.7993 19.824 27.4488C19.8032 27.4312 19.7605 27.4237 19.7328 27.4304C19.3634 27.52 18.9948 27.6132 18.6259 27.7056C18.6124 27.709 18.6 27.7159 18.5652 27.7298C18.5948 27.749 18.612 27.7576 18.6261 27.7696C18.9782 28.07 19.3372 28.3632 19.6782 28.6753C19.82 28.8051 19.9441 28.8502 20.1352 28.7906C20.4456 28.6937 20.7659 28.6272 21.0964 28.5442ZM15.4986 29.9453C15.4836 29.9258 15.4778 29.9147 15.4691 29.907C15.0647 29.562 14.6591 29.2185 14.2572 28.8708C14.2072 28.8276 14.1683 28.8209 14.1064 28.837C13.8061 28.9153 13.5043 28.9878 13.2033 29.0628C13.1338 29.0801 13.0649 29.099 12.9773 29.1221C13.0761 29.2072 13.1613 29.2803 13.2462 29.3533C13.5732 29.6341 13.8995 29.9157 14.2286 30.194C14.2572 30.2183 14.309 30.2395 14.3424 30.2316C14.7242 30.1407 15.1046 30.044 15.4986 29.9453ZM15.7861 28.4169C15.7966 28.4366 15.7982 28.4435 15.8026 28.4471C16.2155 28.8019 16.6278 29.1573 17.0436 29.5089C17.0703 29.5314 17.1268 29.5365 17.164 29.5276C17.5122 29.4442 17.8591 29.3562 18.2063 29.269C18.235 29.2619 18.2627 29.2517 18.3029 29.2393C17.8919 28.8874 17.4905 28.5485 17.0961 28.2022C17.013 28.1293 16.9401 28.1147 16.841 28.1511C16.7733 28.1761 16.7002 28.187 16.6295 28.2048C16.3508 28.2749 16.0721 28.3447 15.7861 28.4169ZM11.6095 33.0162H12.815C12.8142 33.0048 12.8159 32.9974 12.8131 32.9933C12.4962 32.5418 12.1793 32.0903 11.8607 31.6397C11.8485 31.6224 11.8223 31.6068 11.8015 31.6053C11.7393 31.6008 11.6765 31.6036 11.6097 31.6036L11.6095 33.0162ZM11.5232 30.9402C11.9203 30.8407 12.308 30.7436 12.7209 30.6401C12.6854 30.6142 12.6667 30.6025 12.6501 30.5883C12.2694 30.2639 11.8889 29.9393 11.5087 29.6146C11.3817 29.5062 11.3361 29.5015 11.1727 29.5868C11.2888 30.0348 11.405 30.4838 11.5232 30.9402ZM22.1289 31.607C22.4405 32.0493 22.7465 32.4745 23.0405 32.9076C23.1138 33.0156 23.1924 33.0427 23.3106 33.011V31.6068L22.1289 31.607ZM22.5126 26.7325C22.1303 26.8287 21.7588 26.922 21.3871 27.0154L21.3783 27.042C21.3947 27.052 21.4127 27.0601 21.427 27.0723C21.8052 27.3944 22.1868 27.7125 22.5581 28.042C22.6562 28.1289 22.74 28.1609 22.8633 28.0891C22.7474 27.6408 22.6308 27.1893 22.5126 26.7325Z" fill="white"/>
<path d="M16.3951 34.7748C16.4152 34.7842 16.444 34.7953 16.4707 34.8103C17.2734 35.2656 18.076 35.7212 18.8785 36.1767C19.0242 36.2593 19.1698 36.3421 19.3153 36.4252C19.4252 36.4881 19.4256 36.572 19.3143 36.6353C18.4984 37.0994 17.6821 37.5628 16.8661 38.0263C16.7341 38.1013 16.6026 38.1768 16.4699 38.2506C16.3562 38.3139 16.2827 38.2744 16.2827 38.148C16.2821 37.0681 16.2827 35.9881 16.2819 34.9081C16.2819 34.8371 16.3027 34.7859 16.3951 34.7748Z" fill="white"/>
<g filter="url(#filter0_d_66_48)">
<path d="M40.456 31.88H52.672V33.32H40.456V39.68H38.968V25.52H55.144V26.984H40.456V31.88ZM41.776 28.328H56.488V24.176H37.624V41.024H41.776V34.64H53.992V30.56H41.776V28.328ZM37.024 41.624V23.576H57.088L59.416 26.048V31.256H55.744L56.92 32.432V37.568H44.704V43.952H39.496L37.024 41.624ZM64.2554 25.52H65.6954V38.216H79.2554V39.68H64.2554V25.52ZM62.9354 41.024H80.5754V36.872H67.0394V24.176H62.9354V41.024ZM62.3354 23.576H67.6394L69.9674 26.048V36.272H81.1754L83.5034 38.744V43.952H64.8074L62.3354 41.624V23.576ZM88.9951 31.88H101.211V33.32H88.9951V38.216H103.707V39.68H87.5071V25.52H103.683V26.984H88.9951V31.88ZM90.3151 28.328H105.027V24.176H86.1631V41.024H105.051V36.872H90.3151V34.64H102.531V30.56H90.3151V28.328ZM85.5631 41.624V23.576H105.627L107.955 26.048V31.256H104.283L105.459 32.432V36.272L107.979 38.744V43.952H88.0351L85.5631 41.624ZM113.205 36.392C113.717 36.888 114.285 37.264 114.909 37.52C115.533 37.776 116.181 37.96 116.853 38.072C117.525 38.168 118.213 38.224 118.917 38.24C119.621 38.24 120.301 38.24 120.957 38.24C121.197 38.24 121.517 38.232 121.917 38.216C122.333 38.2 122.773 38.168 123.237 38.12C123.717 38.056 124.197 37.976 124.677 37.88C125.157 37.768 125.589 37.624 125.973 37.448C126.373 37.272 126.693 37.064 126.933 36.824C127.189 36.568 127.317 36.264 127.317 35.912C127.317 35.56 127.181 35.256 126.909 35C126.653 34.728 126.317 34.496 125.901 34.304C125.485 34.112 125.013 33.952 124.485 33.824C123.973 33.68 123.461 33.576 122.949 33.512C122.437 33.432 121.957 33.376 121.509 33.344C121.077 33.312 120.725 33.296 120.453 33.296H120.477C120.093 33.28 119.621 33.24 119.061 33.176C118.501 33.112 117.917 33.016 117.309 32.888C116.701 32.76 116.093 32.6 115.485 32.408C114.877 32.2 114.333 31.952 113.853 31.664C113.373 31.376 112.981 31.04 112.677 30.656C112.373 30.256 112.221 29.8 112.221 29.288C112.221 28.728 112.365 28.248 112.653 27.848C112.957 27.448 113.341 27.112 113.805 26.84C114.285 26.552 114.821 26.328 115.413 26.168C116.005 25.992 116.605 25.856 117.213 25.76C117.821 25.664 118.397 25.6 118.941 25.568C119.501 25.536 119.973 25.52 120.357 25.52C120.981 25.52 121.613 25.552 122.253 25.616C122.909 25.664 123.549 25.76 124.173 25.904C124.797 26.048 125.405 26.248 125.997 26.504C126.589 26.744 127.133 27.056 127.629 27.44L126.357 28.352C125.893 28.032 125.405 27.784 124.893 27.608C124.381 27.416 123.853 27.272 123.309 27.176C122.765 27.08 122.213 27.024 121.653 27.008C121.093 26.976 120.549 26.96 120.021 26.96C119.653 26.96 119.149 26.984 118.509 27.032C117.885 27.08 117.261 27.184 116.637 27.344C116.029 27.488 115.501 27.72 115.053 28.04C114.605 28.344 114.381 28.76 114.381 29.288C114.381 29.8 114.597 30.216 115.029 30.536C115.461 30.84 116.029 31.088 116.733 31.28C117.437 31.456 118.237 31.6 119.133 31.712C120.045 31.808 120.973 31.912 121.917 32.024C122.861 32.136 123.781 32.272 124.677 32.432C125.589 32.576 126.397 32.792 127.101 33.08C127.805 33.352 128.373 33.72 128.805 34.184C129.237 34.632 129.453 35.208 129.453 35.912C129.453 36.408 129.301 36.848 128.997 37.232C128.709 37.616 128.325 37.952 127.845 38.24C127.365 38.512 126.821 38.744 126.213 38.936C125.621 39.112 125.021 39.256 124.413 39.368C123.821 39.48 123.253 39.56 122.709 39.608C122.165 39.656 121.717 39.68 121.365 39.68H119.565C118.909 39.68 118.221 39.656 117.501 39.608C116.781 39.56 116.077 39.456 115.389 39.296C114.701 39.12 114.045 38.88 113.421 38.576C112.797 38.272 112.245 37.856 111.765 37.328L113.205 36.392ZM109.773 36.824C110.413 37.864 111.173 38.672 112.053 39.248C112.933 39.808 113.885 40.224 114.909 40.496C115.933 40.752 116.989 40.904 118.077 40.952C119.181 41 120.277 41.024 121.365 41.024C121.845 41.024 122.413 40.992 123.069 40.928C123.725 40.848 124.405 40.728 125.109 40.568C125.813 40.408 126.501 40.2 127.173 39.944C127.861 39.672 128.469 39.352 128.997 38.984C129.541 38.6 129.973 38.16 130.293 37.664C130.629 37.152 130.797 36.568 130.797 35.912C130.797 35.128 130.621 34.464 130.269 33.92C129.933 33.36 129.485 32.896 128.925 32.528C128.381 32.144 127.749 31.84 127.029 31.616C126.325 31.376 125.597 31.192 124.845 31.064C124.093 30.936 123.357 30.84 122.637 30.776C121.917 30.712 121.277 30.656 120.717 30.608C120.525 30.592 120.157 30.56 119.613 30.512C119.069 30.448 118.509 30.368 117.933 30.272C117.357 30.16 116.845 30.024 116.397 29.864C115.949 29.704 115.725 29.512 115.725 29.288C115.725 29.032 115.933 28.84 116.349 28.712C116.765 28.584 117.237 28.488 117.765 28.424C118.309 28.36 118.829 28.328 119.325 28.328C119.837 28.312 120.181 28.304 120.357 28.304C120.869 28.304 121.389 28.328 121.917 28.376C122.445 28.408 122.957 28.488 123.453 28.616C123.965 28.744 124.445 28.928 124.893 29.168C125.357 29.408 125.781 29.72 126.165 30.104L129.669 27.752C129.061 26.92 128.373 26.272 127.605 25.808C126.837 25.328 126.021 24.968 125.157 24.728C124.293 24.488 123.389 24.336 122.445 24.272C121.517 24.208 120.581 24.176 119.637 24.176C119.141 24.176 118.573 24.216 117.933 24.296C117.309 24.36 116.669 24.472 116.013 24.632C115.373 24.792 114.741 25 114.117 25.256C113.509 25.512 112.965 25.832 112.485 26.216C112.005 26.6 111.621 27.048 111.333 27.56C111.045 28.056 110.901 28.632 110.901 29.288C110.901 30.04 111.085 30.688 111.453 31.232C111.821 31.776 112.309 32.24 112.917 32.624C113.525 33.008 114.213 33.32 114.98 33.56C115.749 33.8 116.525 34 117.309 34.16C118.109 34.304 118.877 34.424 119.613 34.52C120.365 34.6 121.021 34.672 121.581 34.736C121.741 34.752 122.053 34.784 122.517 34.832C122.997 34.88 123.493 34.952 124.005 35.048C124.517 35.128 124.973 35.24 125.373 35.384C125.773 35.528 125.973 35.704 125.973 35.912C125.973 36.088 125.845 36.24 125.589 36.368C125.333 36.48 125.005 36.576 124.605 36.656C124.205 36.72 123.765 36.768 123.285 36.8C122.805 36.832 122.333 36.856 121.869 36.872C121.421 36.888 121.013 36.896 120.645 36.896C120.293 36.896 120.045 36.896 119.901 36.896C119.293 36.896 118.693 36.872 118.101 36.824C117.509 36.76 116.933 36.648 116.373 36.488C115.813 36.312 115.285 36.072 114.789 35.768C114.293 35.464 113.845 35.056 113.445 34.544L109.773 36.824ZM113.253 33.944L112.101 32.768C111.541 32.352 111.101 31.864 110.781 31.304C110.461 30.728 110.301 30.056 110.301 29.288C110.301 28.552 110.453 27.904 110.757 27.344C111.077 26.768 111.493 26.272 112.005 25.856C112.517 25.44 113.101 25.088 113.757 24.8C114.413 24.496 115.085 24.256 115.773 24.08C116.461 23.904 117.141 23.776 117.813 23.696C118.485 23.616 119.093 23.576 119.637 23.576C120.581 23.576 121.533 23.608 122.493 23.672C123.453 23.72 124.389 23.864 125.301 24.104C126.229 24.344 127.117 24.712 127.965 25.208C128.813 25.704 129.605 26.4 130.341 27.296C130.837 27.792 131.229 28.208 131.517 28.544C131.805 28.864 132.029 29.136 132.189 29.36C132.365 29.584 132.493 29.768 132.573 29.912C132.653 30.04 132.733 30.16 132.812 30.272L129.741 32.336C129.821 32.416 129.909 32.488 130.005 32.552C130.117 32.6 130.269 32.704 130.461 32.864C130.653 33.024 130.901 33.256 131.205 33.56C131.525 33.848 131.949 34.264 132.477 34.808C132.861 35.208 133.165 35.72 133.389 36.344C133.613 36.968 133.725 37.624 133.725 38.312C133.725 39.032 133.549 39.672 133.197 40.232C132.845 40.792 132.389 41.28 131.829 41.696C131.269 42.112 130.629 42.464 129.909 42.752C129.189 43.04 128.461 43.272 127.725 43.448C126.989 43.624 126.269 43.752 125.565 43.832C124.877 43.912 124.277 43.952 123.765 43.952C122.821 43.952 121.861 43.952 120.885 43.952C119.909 43.952 118.949 43.872 118.005 43.712C117.077 43.552 116.173 43.288 115.293 42.92C114.413 42.552 113.605 41.992 112.869 41.24C112.245 40.664 111.717 40.16 111.285 39.728C110.869 39.28 110.509 38.88 110.205 38.528C109.917 38.16 109.669 37.824 109.461 37.52C109.269 37.216 109.085 36.92 108.909 36.632L113.253 33.944ZM151.77 39.68V33.32H138.378V39.68H136.914V25.52H138.378V31.88H151.77V25.52H153.258V39.68H151.77ZM154.602 41.024V24.176H150.426V30.56H139.722V24.176H135.57V41.024H139.722V34.64H150.426V41.024H154.602ZM142.65 29.96H149.826V23.576H155.202L157.53 26.048V43.952H152.298L149.826 41.624V37.568H142.65V43.952H137.442L134.97 41.624V23.576H140.322L142.65 26.048V29.96Z" fill="#B52100"/>
</g>
<defs>
<filter id="filter0_d_66_48" x="30" y="0" width="178" height="85" filterUnits="userSpaceOnUse" color-interpolation-filters="sRGB">
<feFlood flood-opacity="0" result="BackgroundImageFix"/>
<feColorMatrix in="SourceAlpha" type="matrix" values="0 0 0 0 0 0 0 0 0 0 0 0 0 0 0 0 0 0 127 0" result="hardAlpha"/>
<feOffset dy="4"/>
<feGaussianBlur stdDeviation="2"/>
<feComposite in2="hardAlpha" operator="out"/>
<feColorMatrix type="matrix" values="0 0 0 0 0 0 0 0 0 0 0 0 0 0 0 0 0 0 0.25 0"/>
<feBlend mode="normal" in2="BackgroundImageFix" result="effect1_dropShadow_66_48"/>
<feBlend mode="normal" in="SourceGraphic" in2="effect1_dropShadow_66_48" result="shape"/>
</filter>
<linearGradient id="paint0_linear_66_48" x1="4.66832" y1="38.1098" x2="34.1078" y2="27.9886" gradientUnits="userSpaceOnUse">
<stop stop-color="#FF2E00"/>
<stop offset="1" stop-color="#B52100"/>
</linearGradient>
</defs>
</svg>
